<svg xmlns="http://www.w3.org/2000/svg" viewBox="0 0 120 32" fill="none">
  <rect width="28" height="28" x="2" y="2" rx="6" fill="#0284c7" fill-opacity="0.1" stroke="#0284c7" stroke-width="1.5"/>
  <path d="M8 22L8 10L14 10C17.3 10 19 11.7 19 14.5C19 16.5 18 17.8 16.4 18.4L19.5 22H16.8L14 18.8H10.5V22H8ZM10.5 17H13.8C15.6 17 16.5 16 16.5 14.5C16.5 13 15.6 12.2 13.8 12.2H10.5V17Z" fill="#0284c7"/>
  <path d="M21 22L21 10L23.2 10L27.5 17.5L27.5 10H30H30V22H27.8L23.5 14.5V22H21Z" fill="#0284c7"/>
  <text x="36" y="21" font-family="'JetBrains Mono', monospace" font-size="13" font-weight="700" fill="#0284c7">RNA</text>
  <text x="66" y="21" font-family="Inter, sans-serif" font-size="12" font-weight="400" fill="#2d6b96">Method</text>
</svg>
